<?xml version="1.0" encoding="UTF-8"?>
<svg id="logos" xmlns="http://www.w3.org/2000/svg" viewBox="0 0 1020.47 411.02">
  <defs>
    <style>
      .cls-1 {
        fill: #263287;
      }

      .cls-1, .cls-2, .cls-3 {
        stroke-width: 0px;
      }

      .cls-2 {
        fill: #fff;
      }

      .cls-3 {
        fill: #00b5ef;
      }
    </style>
  </defs>
  <path class="cls-3" d="m263.61,111.16c-76.77,0-138.99,39.81-138.99,88.92s62.23,92.77,138.99,92.77,138.99-43.67,138.99-92.77-62.23-88.92-138.99-88.92Z"/>
  <path class="cls-2" d="m218.38,172.59c-.07.14-1.43,1.54-.55,2.67,2.15,2.75,8.79,4.32,15.5,2.81,4-.9,9.12-4.97,14.08-8.91,5.38-4.27,10.72-8.55,16.08-10.25,5.68-1.81,9.32-1.03,11.72-.31,2.64.79,5.74,2.52,10.69,6.24,9.32,7.01,46.79,39.71,53.26,45.36,5.21-2.35,30.05-12.39,61.54-19.33-2.74-16.79-12.84-32.79-28.33-45.37-21.59,9.07-49.74,14.5-75.54,1.9-.13-.05-14.09-6.66-27.87-6.34-20.47.48-29.34,9.33-38.72,18.71l-11.89,12.81Z"/>
  <path class="cls-2" d="m337.65,213.77c-.44-.39-44.06-38.56-53.94-45.99-5.72-4.29-8.9-5.38-12.24-5.81-1.74-.22-4.14.1-5.82.56-4.6,1.25-10.61,5.27-15.94,9.5-5.52,4.4-10.73,8.54-15.57,9.63-6.18,1.38-13.72-.25-17.16-2.58-1.39-.93-2.38-2.02-2.85-3.12-1.27-2.95,1.07-5.3,1.46-5.7l12.04-13.02c1.4-1.39,2.81-2.79,4.25-4.17-3.89.51-7.48,1.5-10.97,2.47-4.36,1.22-8.56,2.39-12.8,2.39-1.77,0-11.27-1.55-13.07-2.04-10.9-2.98-23.24-5.88-37.52-12.55-17.11,12.74-28.26,28.38-31.56,45.92,2.46.65,8.9,2.12,10.57,2.49,38.73,8.61,50.79,17.48,52.98,19.33,2.37-2.64,5.79-4.3,9.6-4.3,4.29,0,8.15,2.16,10.5,5.49,2.22-1.75,5.27-3.25,9.23-3.25,1.8,0,3.66.33,5.54.97,4.37,1.5,6.63,4.41,7.8,7.04,1.46-.66,3.27-1.15,5.39-1.15,2.09,0,4.26.48,6.44,1.42,7.14,3.06,8.25,10.08,7.6,15.36.51-.06,1.02-.08,1.54-.08,8.46,0,15.35,6.89,15.35,15.36,0,2.62-.67,5.09-1.84,7.25,2.3,1.3,8.17,4.22,13.33,3.57,4.11-.52,5.68-1.92,6.24-2.72.39-.54.79-1.18.41-1.64l-10.93-12.14s-1.8-1.7-1.2-2.36c.61-.68,1.73.29,2.51.95,5.56,4.64,12.35,11.65,12.35,11.65.12.08.57.96,3.08,1.41,2.16.39,5.99.16,8.64-2.01.67-.55,1.34-1.24,1.9-1.94-.05.04-.08.08-.13.1,2.8-3.58-.31-7.19-.31-7.19l-12.76-14.33s-1.83-1.69-1.2-2.36c.55-.59,1.73.3,2.53.96,4.04,3.38,9.74,9.1,15.21,14.46,1.07.78,5.87,3.75,12.24-.42,3.87-2.53,4.64-5.65,4.53-7.99-.27-3.11-2.69-5.32-2.69-5.32l-17.42-17.52s-1.85-1.57-1.19-2.37c.53-.67,1.72.29,2.51.95,5.55,4.64,20.57,18.42,20.57,18.42.22.15,5.41,3.85,11.82-.24,2.3-1.47,3.76-3.68,3.88-6.25.22-4.45-2.92-7.1-2.92-7.1Z"/>
  <path class="cls-2" d="m253.13,235.97c-2.7-.03-5.66,1.58-6.04,1.34-.22-.14.17-1.23.42-1.85.26-.62,3.82-11.33-4.85-15.04-6.64-2.85-10.7.36-12.09,1.8-.36.38-.53.35-.57-.13-.14-1.93-1-7.15-6.73-8.9-8.19-2.5-13.45,3.21-14.79,5.27-.6-4.67-4.54-8.29-9.37-8.3-5.25,0-9.51,4.25-9.51,9.49,0,5.25,4.25,9.51,9.5,9.51,2.55,0,4.87-1.01,6.57-2.65.05.05.08.14.05.32-.4,2.35-1.14,10.89,7.81,14.37,3.59,1.39,6.64.36,9.17-1.41.75-.53.87-.31.77.4-.32,2.2.09,6.9,6.68,9.57,5.02,2.04,7.98-.04,9.93-1.85.85-.77,1.08-.64,1.12.55.24,6.36,5.52,11.41,11.93,11.41,6.61,0,11.96-5.33,11.97-11.94,0-6.61-5.35-11.89-11.95-11.97Z"/>
  <path class="cls-1" d="m263.59,107.48c-78.23,0-141.64,41.61-141.64,92.64,0,1.32-.02,4.96-.02,5.42,0,54.15,55.43,98,141.64,98s141.66-43.84,141.66-97.99v-5.43c0-51.04-63.41-92.64-141.64-92.64Zm135.25,82.38c-30.78,6.84-53.74,16.78-59.5,19.34-13.44-11.72-44.49-38.73-52.9-45.04-4.81-3.62-8.09-5.52-10.96-6.38-1.29-.39-3.08-.83-5.38-.84-2.14,0-4.44.39-6.83,1.15-5.44,1.72-10.85,6.02-16.09,10.19l-.27.21c-4.88,3.88-9.92,7.89-13.74,8.74-1.67.37-3.38.57-5.09.57-4.28,0-8.12-1.24-9.56-3.07-.24-.3-.08-.79.47-1.5l.07-.1,11.82-12.74c9.26-9.26,18-18,38.13-18.46.33,0,.67-.02,1-.02,12.53,0,25.06,5.62,26.46,6.27,11.75,5.73,23.88,8.64,36.06,8.65,12.67,0,25.76-3.13,39.51-9.45,14.36,12.08,23.88,26.62,26.78,42.47Zm-135.23-76.91c41.52,0,78.68,11.9,103.66,30.65-12.08,5.22-23.58,7.87-34.69,7.86-11.36-.01-22.72-2.74-33.74-8.12-.58-.28-14.41-6.8-28.8-6.81-.38,0-.76,0-1.14.01-16.91.4-26.43,6.4-32.84,11.66-6.23.15-11.6,1.66-16.39,2.99-4.27,1.18-7.95,2.21-11.55,2.21-1.48,0-4.14-.14-4.38-.15-4.12-.12-24.84-5.2-41.38-11.45,24.93-17.72,61.05-28.86,101.24-28.86Zm-106.14,32.56c17.28,7.07,38.24,12.52,44.86,12.95,1.85.12,3.82.33,5.79.33,4.4,0,8.78-1.23,13.03-2.42,2.51-.7,5.28-1.47,8.19-2.03-.78.76-1.55,1.53-2.33,2.32l-12.01,12.99c-.94.95-3,3.5-1.64,6.64.54,1.26,1.63,2.48,3.16,3.5,2.86,1.93,7.99,3.23,12.75,3.23,1.8,0,3.52-.18,5.08-.53,5.04-1.13,10.32-5.34,15.91-9.78,4.46-3.54,10.79-8.04,15.64-9.36,1.36-.37,3.02-.6,4.36-.6.4,0,.78.02,1.13.07,3.2.41,6.3,1.49,11.83,5.64,9.86,7.41,53.48,45.57,53.91,45.95.03.02,2.81,2.43,2.62,6.41-.1,2.23-1.34,4.2-3.49,5.57-1.86,1.18-3.78,1.78-5.72,1.78-2.92,0-4.92-1.37-5.06-1.46-.16-.13-15.1-13.84-20.61-18.44-.88-.73-1.73-1.38-2.58-1.38-.46,0-.87.19-1.14.54-.86,1.07.1,2.54,1.25,3.51l17.46,17.55s2.18,2.03,2.42,4.73c.14,2.91-1.25,5.34-4.14,7.24-2.06,1.36-4.14,2.05-6.19,2.05-2.69,0-4.56-1.22-4.98-1.51l-2.5-2.47c-4.58-4.5-9.31-9.16-12.76-12.05-.85-.7-1.74-1.35-2.6-1.35-.43,0-.8.16-1.1.47-.39.44-.67,1.23.32,2.53.4.54.88.98.88.98l12.74,14.31c.1.13,2.63,3.12.29,6.11l-.45.57c-.39.42-.79.81-1.19,1.14-2.17,1.78-5.07,1.97-6.23,1.97-.62,0-1.21-.05-1.72-.15-1.26-.22-2.1-.58-2.51-1.06l-.16-.16c-.69-.72-7.11-7.28-12.43-11.71-.7-.59-1.57-1.32-2.48-1.32-.45,0-.84.17-1.15.51-1.05,1.15.53,2.87,1.2,3.5l10.86,11.99c-.01.11-.14.35-.41.73-.39.54-1.71,1.86-5.65,2.35-.47.06-.96.09-1.44.09-4.07,0-8.4-1.98-10.64-3.16,1.02-2.15,1.55-4.52,1.55-6.89,0-8.94-7.26-16.22-16.2-16.23-.19,0-.39,0-.59.01.29-4.09-.28-11.82-8.22-15.22-2.28-.99-4.56-1.49-6.78-1.49-1.73,0-3.4.3-4.97.9-1.64-3.2-4.38-5.52-7.94-6.74-1.97-.68-3.93-1.02-5.82-1.02-3.3,0-6.35.97-9.06,2.9-2.6-3.24-6.53-5.15-10.66-5.15-3.62,0-7.1,1.45-9.68,4.01-3.38-2.58-16.8-11.11-52.71-19.26-1.72-.39-5.61-1.5-8.06-2.22,3.37-16.12,13.61-30.84,28.81-42.92Zm66.62,93.49l-.39-.35h-.39c-.32,0-.65.13-1.1.44-1.83,1.29-3.58,1.91-5.37,1.91-.98,0-1.99-.2-3-.58-8.33-3.24-7.67-11.1-7.26-13.46.06-.48-.06-.85-.36-1.1l-.59-.48-.55.52c-1.62,1.56-3.74,2.42-5.97,2.42-4.77,0-8.65-3.88-8.65-8.65,0-4.77,3.89-8.64,8.66-8.63,4.31,0,7.98,3.24,8.53,7.54l.3,2.32,1.28-1.96c.14-.23,3.64-5.51,10.06-5.51,1.22,0,2.48.2,3.75.59,5.12,1.56,5.99,6.2,6.12,8.14.09,1.13.89,1.18,1.05,1.18.44,0,.77-.28,1-.52.96-1.01,3.07-2.69,6.36-2.69,1.51,0,3.11.36,4.77,1.08,8.14,3.49,4.45,13.83,4.4,13.94-.7,1.71-.73,2.47-.07,2.91l.32.15h.24c.36,0,.82-.16,1.58-.41,1.11-.38,2.78-.96,4.34-.96h0c6.13.07,11.11,5.06,11.11,11.11,0,6.12-4.99,11.09-11.11,11.09-5.99,0-10.86-4.66-11.08-10.59-.02-.51-.07-1.86-1.22-1.86-.47,0-.88.28-1.34.71-1.32,1.22-3,2.46-5.44,2.46-1.11,0-2.31-.26-3.59-.78-6.32-2.57-6.41-6.91-6.15-8.65.07-.47.09-.95-.23-1.33Zm39.53,48.21c-75.22,0-136.2-39.01-136.2-87.13,0-1.94.13-3.85.33-5.76.6.14,6.57,1.57,7.81,1.85,36.69,8.15,48.81,16.62,50.86,18.22-.69,1.66-1.06,3.47-1.06,5.27,0,7.58,6.16,13.76,13.74,13.76.85,0,1.69-.08,2.52-.23,1.14,5.58,4.79,9.81,10.37,11.98,1.63.63,3.28.94,4.9.94,1.05,0,2.1-.12,3.13-.39,1.03,2.61,3.35,5.87,8.53,7.98,1.81.73,3.63,1.11,5.4,1.11,1.44,0,2.85-.26,4.2-.75,2.48,6.05,8.4,10.06,14.98,10.06,4.37,0,8.56-1.78,11.62-4.93,2.61,1.46,8.14,4.09,13.73,4.1.72,0,1.39-.05,2.08-.13,5.54-.7,8.12-2.87,9.3-4.55.22-.29.41-.61.57-.93,1.31.37,2.75.68,4.4.69,3.02,0,5.93-1.03,8.87-3.17,2.89-2.08,4.94-5.07,5.23-7.61,0-.03,0-.07.01-.11.98.2,1.97.3,2.97.3,3.12,0,6.19-.97,9.11-2.89,5.66-3.7,6.63-8.54,6.54-11.71,1,.21,2,.31,3.01.31,2.92,0,5.8-.88,8.53-2.63,3.5-2.24,5.62-5.67,5.94-9.66.21-2.71-.46-5.45-1.89-7.8,9.45-4.07,31.05-11.95,56.49-17.69.11,1.44.17,2.89.17,4.35,0,48.12-60.97,87.13-136.19,87.13Z"/>
  <g>
    <path class="cls-1" d="m890.83,135.99c-5.14-6.45-12.95-9.67-23.43-9.67s-18.28,3.22-23.42,9.67c-5.15,6.44-7.72,14.06-7.72,22.85s2.57,16.58,7.72,22.94c5.14,6.34,12.95,9.52,23.42,9.52s18.28-3.18,23.43-9.52c5.15-6.36,7.72-14,7.72-22.94s-2.57-16.4-7.72-22.85Zm-12.74,36.97c-2.5,3.31-6.07,4.97-10.74,4.97s-8.25-1.66-10.76-4.97c-2.52-3.31-3.77-8.02-3.77-14.13s1.25-10.8,3.77-14.1c2.52-3.29,6.11-4.94,10.76-4.94s8.24,1.65,10.74,4.94c2.49,3.3,3.74,8,3.74,14.1s-1.25,10.82-3.74,14.13Z"/>
    <path class="cls-1" d="m759.37,130.6c-5.21-2.64-11.18-3.97-17.9-3.97-10.33,0-17.62,2.69-21.86,8.07-2.67,3.44-4.17,7.84-4.51,13.19h15.43c.38-2.37,1.13-4.23,2.27-5.61,1.59-1.87,4.3-2.8,8.12-2.8,3.41,0,6,.47,7.77,1.43,1.75.95,2.64,2.68,2.64,5.18,0,2.06-1.15,3.56-3.44,4.54-1.28.56-3.41,1.03-6.39,1.4l-5.47.67c-6.21.79-10.93,2.1-14.12,3.93-5.84,3.37-8.76,8.8-8.76,16.32,0,5.79,1.8,10.27,5.44,13.43,3.62,3.16,8.23,4.48,13.79,4.74,34.89,1.56,34.5-18.38,34.82-22.53v-22.96c0-7.36-2.61-12.38-7.82-15.04Zm-8.1,34.84c-.11,5.34-1.64,9.03-4.58,11.05-2.94,2.02-6.16,3.03-9.64,3.03-2.21,0-4.08-.62-5.62-1.83-1.54-1.22-2.3-3.19-2.3-5.92,0-3.06,1.26-5.32,3.77-6.78,1.49-.86,3.94-1.59,7.35-2.17l3.64-.68c1.81-.35,3.24-.72,4.28-1.11,1.05-.38,2.07-.89,3.09-1.53v5.95Z"/>
    <path class="cls-1" d="m679.81,140.3c3.99,0,6.92,1.23,8.82,3.7,1.29,1.82,2.1,3.87,2.42,6.15h17.21c-.94-8.69-3.98-14.75-9.11-18.18-5.15-3.42-11.74-5.14-19.8-5.14-9.48,0-16.92,2.91-22.3,8.72-5.39,5.82-8.09,13.95-8.09,24.41,0,9.26,2.44,16.8,7.32,22.62,4.88,5.81,12.49,8.72,22.83,8.72s18.17-3.49,23.43-10.46c3.3-4.32,5.15-8.9,5.54-13.75h-17.15c-.35,3.21-1.35,5.82-3.01,7.83-1.65,2-4.44,3.01-8.39,3.01-5.55,0-9.34-2.53-11.34-7.61-1.1-2.71-1.66-6.29-1.66-10.76s.56-8.43,1.66-11.27c2.09-5.32,5.97-7.99,11.63-7.99Z"/>
    <path class="cls-1" d="m644.34,126.83c-35.36,0-33.27,31.3-33.27,31.3v31.8h16.04v-29.82c0-4.89.62-8.5,1.84-10.86,2.2-4.17,6.51-6.27,12.92-6.27.48,0,1.12.03,1.9.06.78.04,1.67.11,2.69.23v-16.32c-.71-.05-1.18-.07-1.38-.09-.21-.02-.46-.03-.76-.03Z"/>
    <path class="cls-1" d="m598.21,138.69c-2.77-4.11-6.29-7.11-10.54-9.02-4.25-1.89-9.02-2.84-14.32-2.84-8.94,0-16.2,2.82-21.8,8.44-5.6,5.64-8.4,13.73-8.4,24.29,0,11.27,3.1,19.41,9.31,24.4,6.19,5,13.36,7.51,21.46,7.51,9.83,0,17.47-2.97,22.93-8.9,2.95-3.11,4.79-6.2,5.57-9.25h-17.02c-.67.96-1.39,1.79-2.19,2.43-2.27,1.86-5.34,2.43-8.97,2.43-3.43,0-6.11-.52-8.54-2.05-4-2.46-6.26-6.62-6.5-12.74h44.4c.06-5.27-.11-9.3-.53-12.1-.73-4.77-2.36-8.98-4.85-12.6Zm-38.62,14.18c.57-3.97,2-7.11,4.24-9.43,2.26-2.32,5.42-3.48,9.52-3.48,3.76,0,6.91,1.09,9.46,3.29,2.53,2.19,3.95,5.4,4.24,9.62h-27.45Z"/>
    <path class="cls-1" d="m511.27,126.62c-7.45,0-13.89,3.26-18.21,8.49-4.11-5.23-10.44-8.49-18.23-8.49-15.67,0-25.78,11.51-25.78,26.75v36.55h14.66v-36.9c0-6.74,4.55-11.39,11.11-11.39,9.66,0,10.67,8.02,10.67,11.39v36.9h14.66v-36.9c0-6.74,4.67-11.39,11.11-11.39,9.67,0,10.78,8.02,10.78,11.39v36.9h14.65v-36.55c0-15.71-9.43-26.75-25.44-26.75Z"/>
    <path class="cls-1" d="m815.33,118.81l-.02,17.19c-1.79-2.88-4.11-5.12-6.98-6.74-2.86-1.62-6.14-2.43-9.84-2.43-8.02,0-14.41,2.99-19.2,8.94-4.8,5.97-7.19,14.57-7.19,24.97,0,9.03,2.43,16.42,7.3,22.18,4.87,5.75,14.4,8.28,22.87,8.28,29.54,0,29.2-25.33,29.2-25.33v-58.3s-16.14-1.73-16.14,11.26Zm-3.09,54.29c-2.34,3.36-5.78,5.03-10.29,5.03s-7.88-1.69-10.09-5.06c-2.22-3.38-3.32-8.29-3.32-13.92,0-5.22,1.08-9.59,3.26-13.11,2.18-3.52,5.6-5.29,10.26-5.29,3.06,0,5.74.97,8.06,2.9,3.76,3.21,5.65,8.97,5.65,16.42,0,5.32-1.18,9.67-3.53,13.03Z"/>
  </g>
  <path class="cls-1" d="m482.96,214.45c-13.21-.62-19.89,2.53-24.24,5.85-6.01,4.58-9.67,11.37-9.67,22.21v55.74h7.77c2.09,0,4.16-.72,5.69-2.13,1.72-1.58,2.57-3.51,2.57-5.78v-20.83c1.89,3.26,4.39,5.66,7.54,7.22,2.98,1.39,6.44,2.09,10.37,2.09,7.39,0,13.45-2.94,18.16-8.84,4.71-6.06,7.07-13.96,7.07-23.73s-2.23-16.73-7.58-23.25c-4.32-5.26-10.89-8.23-17.7-8.54Zm5.47,45.75c-2.36,3.27-5.58,4.89-9.67,4.89-4.4,0-7.79-1.62-10.14-4.89-2.36-2.95-3.54-7.35-3.54-13.26,0-6.35,1.1-11.01,3.29-13.96,2.37-3.25,5.67-4.89,9.91-4.89s7.78,1.64,10.14,4.89c2.37,3.26,3.54,7.91,3.54,13.96,0,5.6-1.18,10.01-3.54,13.26Z"/>
  <path class="cls-1" d="m620.77,220.2c-5.45-4.13-11.02-6.29-20.61-6.04-9.72.26-16.8,2.98-21.2,8.95-4.4,5.96-6.59,13.76-6.59,23.36,0,8.21,1.66,14.84,4.97,19.9,3.32,5.03,7.3,8.48,11.94,10.33,4.62,1.87,9.29,2.25,14,1.18,4.71-1.09,8.46-3.79,11.23-8.13v3.94c-.32,4.97-1.51,8.68-3.58,11.17-2.1,2.47-4.41,3.98-6.96,4.53-2.53.53-5.09.24-7.63-.93-2.56-1.16-4.44-2.83-5.68-4.99h-16.91c4.38,13.16,12.24,18.97,26.4,20,22.85,1.65,30.13-17.7,30.1-28.13v-32.79c0-10.84-3.53-17.79-9.5-22.32Zm-6.72,32.21c-.62,3.63-1.62,6.32-3.01,8.01-2.93,4.03-7.49,5.45-13.66,4.31-6.18-1.17-9.27-7.1-9.27-17.79,0-4.97.92-9.38,2.79-13.26,1.86-3.86,5.4-5.81,10.65-5.81,3.86,0,6.8,1.4,8.8,4.18,2.01,2.79,3.29,5.96,3.83,9.54.54,3.56.49,7.17-.12,10.81Z"/>
  <path class="cls-1" d="m558.65,218.57c-5.22-2.63-11.19-3.97-17.9-3.97-10.33,0-17.61,2.69-21.85,8.07-2.66,3.44-4.17,7.83-4.51,13.18h15.44c.38-2.36,1.13-4.23,2.27-5.61,1.59-1.87,4.3-2.81,8.12-2.81,3.43,0,6.01.47,7.77,1.43,1.75.95,2.64,2.68,2.64,5.19,0,2.06-1.15,3.57-3.44,4.54-1.28.56-3.41,1.02-6.39,1.4l-5.46.66c-6.21.79-10.94,2.1-14.12,3.93-5.85,3.37-8.76,8.8-8.76,16.31,0,5.79,1.8,10.27,5.44,13.43,3.62,3.17,8.23,4.49,13.8,4.75,34.87,1.56,34.48-18.39,34.8-22.53v-22.96c0-7.36-2.6-12.37-7.81-15.03Zm-8.11,34.83c-.1,5.35-1.63,9.03-4.57,11.05-2.94,2.02-6.16,3.03-9.64,3.03-2.21,0-4.08-.62-5.62-1.83-1.54-1.21-2.31-3.19-2.31-5.92,0-3.06,1.26-5.32,3.78-6.78,1.5-.86,3.94-1.59,7.34-2.17l3.65-.68c1.82-.35,3.24-.71,4.27-1.1,1.06-.38,2.08-.89,3.1-1.54v5.95Z"/>
  <path class="cls-1" d="m690.94,223.64c-5.15-6.45-12.96-9.67-23.43-9.67s-18.27,3.22-23.41,9.67c-5.15,6.44-7.72,14.05-7.72,22.83s2.57,16.58,7.72,22.93c5.14,6.33,12.95,9.51,23.41,9.51s18.28-3.18,23.43-9.51c5.14-6.36,7.7-14,7.7-22.93s-2.57-16.39-7.7-22.83Zm-12.75,36.95c-2.49,3.31-6.06,4.98-10.72,4.98s-8.25-1.66-10.76-4.98c-2.53-3.3-3.78-8.01-3.78-14.11s1.25-10.8,3.78-14.09c2.51-3.3,6.1-4.94,10.76-4.94s8.23,1.65,10.72,4.94c2.5,3.29,3.74,7.99,3.74,14.09s-1.25,10.81-3.74,14.11Z"/>
</svg>